<?xml version="1.0" encoding="utf-8"?>
<!-- Generator: Adobe Illustrator 16.0.4, SVG Export Plug-In . SVG Version: 6.00 Build 0)  -->
<!DOCTYPE svg PUBLIC "-//W3C//DTD SVG 1.1//EN" "http://www.w3.org/Graphics/SVG/1.1/DTD/svg11.dtd">
<svg version="1.1" id="Layer_1" xmlns="http://www.w3.org/2000/svg" xmlns:xlink="http://www.w3.org/1999/xlink" x="0px" y="0px"
	 width="63.176px" height="60.795px" viewBox="0 0 63.176 60.795" enable-background="new 0 0 63.176 60.795" xml:space="preserve">
<path fill="#F7944A" d="M41.651,36.553c0.939-1.295,1.412-2.969,1.412-5.021c0-1.241-0.174-2.327-0.471-3.289
	c-1.064,1.02-1.75,2.277-1.75,3.81C40.843,33.299,41.103,34.902,41.651,36.553"/>
<path fill="#F7944A" d="M53.524,24.677c0.33,1.805,0.488,3.633,0.488,5.409c0,6.71-1.307,11.516-3.303,14.951
	c0.334,0.035,0.674,0.062,1.029,0.062c9.396,0,11.436-8.743,11.436-12.544C63.175,26.468,56.95,24.837,53.524,24.677"/>
<path fill="#F7944A" d="M44.073,31.531c0,2.551-0.713,4.564-2.029,6.082c0.359,0.879,0.797,1.752,1.328,2.577
	c1.844-2.118,2.783-5.161,2.783-9.14c0-1.671-0.275-3.226-0.77-4.653c-0.701,0.33-1.367,0.706-1.959,1.141
	C43.825,28.69,44.073,29.997,44.073,31.531"/>
<path fill="#F7944A" d="M47.333,31.051c0,4.807-1.303,8.01-3.262,10.129c0.494,0.635,1.059,1.217,1.678,1.734
	c2.074-2.604,3.451-6.516,3.451-12.348c0-1.786-0.238-3.571-0.695-5.276c-0.676,0.174-1.357,0.39-2.025,0.643
	C47.026,27.501,47.333,29.212,47.333,31.051"/>
<path fill="#F7944A" d="M50.687,30.566c0,6.24-1.521,10.415-3.727,13.211c0.621,0.375,1.295,0.68,2.021,0.902
	c2.039-3.262,3.342-7.945,3.342-14.594c0-0.939-0.076-2.971-0.535-5.368c-0.578,0.051-1.203,0.134-1.859,0.256
	C50.427,26.803,50.687,28.697,50.687,30.566"/>
<path fill="#FFBF0F" d="M31.901,16.46c5.211,0,9.51,1.979,12.241,5.282c0.576-0.778,1.045-1.605,1.436-2.429
	c-2.479-3.103-6.268-5.182-11.512-5.182c-2.758,0-7.863,0.666-12.367,2.372c0.078,0.548,0.258,1.089,0.531,1.617
	C25.424,16.97,29.018,16.46,31.901,16.46"/>
<path fill="#FFBF0F" d="M46.966,12.479C46.604,7.761,44.116,0,35.444,0c-6.708,0-10.749,6.33-12.599,11.13
	c5.105-1.601,10.348-2.242,13.394-2.242C40.784,8.888,44.296,10.279,46.966,12.479"/>
<path fill="#FFBF0F" d="M24.405,20.762c1.581-0.365,3.372-0.559,5.34-0.559c2.932,0,8.504,0.52,11.768,4.068
	c0.689-0.454,1.303-0.99,1.844-1.583c-2.508-3.151-6.543-5.051-11.455-5.051c-2.695,0-6.056,0.453-9.042,1.477
	C23.289,19.687,23.806,20.238,24.405,20.762"/>
<path fill="#FFBF0F" d="M40.573,24.812c-3.049-3.133-8.134-3.602-10.827-3.602c-1.571,0-3.013,0.133-4.319,0.374
	c3.328,2.451,8.099,4.131,11.188,4.131C38.126,25.715,39.437,25.373,40.573,24.812"/>
<path fill="#FFBF0F" d="M34.065,12.647c5.406,0,9.402,2.096,12.131,5.206c0.447-1.236,0.691-2.362,0.779-3.159
	c-2.375-2.408-5.789-4.117-10.736-4.117c-3.054,0-8.779,0.737-14.072,2.562c-0.193,0.662-0.328,1.244-0.416,1.739
	C26.124,13.302,30.924,12.647,34.065,12.647"/>
<path fill="#BDCC29" d="M11.458,25.736c0-3.918,2.501-6.78,5.936-8.823c-0.502-0.332-1.031-0.601-1.574-0.786
	c-3.232,2.104-5.486,4.898-5.486,8.526c0,3.224,1.191,7.378,3.335,11.452c0.359-0.028,0.699-0.094,1.02-0.201
	C12.626,32.293,11.458,28.595,11.458,25.736"/>
<path fill="#BDCC29" d="M14.26,26.82c0-3.389,2.188-5.816,5.21-7.471c-0.251-0.536-0.542-1.017-0.887-1.411
	c-3.241,1.798-5.64,4.321-5.64,7.798c0,2.674,1.09,6.135,3.018,9.515c0.314-0.231,0.612-0.491,0.884-0.794
	C15.193,31.736,14.26,28.972,14.26,26.82"/>
<path fill="#BDCC29" d="M13.565,15.664c-0.434-0.041-0.843-0.057-1.207-0.057C8.425,15.607,0,18.855,0,24.848
	c0,6.423,7.141,10.393,11.788,11.158c-2.024-4.065-3.143-8.143-3.143-11.354C8.645,20.893,10.623,17.942,13.565,15.664"/>
<path fill="#BDCC29" d="M16.931,27.904c0-2.254,1.177-4.119,3.258-5.451c-0.045-0.751-0.149-1.426-0.319-2.021
	c-2.595,1.459-4.433,3.54-4.433,6.388c0,1.89,0.764,4.285,2.141,6.677c0.269-0.414,0.505-0.867,0.724-1.335
	C17.421,30.622,16.931,29.124,16.931,27.904"/>
<path fill="#BDCC29" d="M17.938,27.904c0,0.905,0.306,1.978,0.848,3.099c1.025-2.771,1.375-5.905,1.442-7.354
	C18.76,24.759,17.938,26.203,17.938,27.904"/>
<path fill="#00AB9E" d="M32.98,40.838c-4.651,0-8.611-2.041-11.439-4.656c-0.525,0.211-1.042,0.444-1.552,0.696
	c3.251,3.8,8.036,6.905,13.74,6.905c2.758,0,5.049-0.488,6.895-1.444c-0.373-1.005-0.863-1.883-1.453-2.64
	C37.507,40.435,35.46,40.838,32.98,40.838"/>
<path fill="#00AB9E" d="M14.555,40.693c-1.987,1.981-3.274,4.254-3.274,6.482c0,8.711,13.563,13.619,18.815,13.619
	c6.222,0,9.134-3.943,10.396-8.125c-1.885,0.471-3.713,0.626-5.303,0.626C26.507,53.296,19.269,47.535,14.555,40.693"/>
<path fill="#00AB9E" d="M27.984,34.81c-1.749,0-3.603,0.368-5.417,0.989c2.626,2.28,6.215,4.031,10.413,4.031
	c2.202,0,4.012-0.332,5.497-0.936C35.192,35.481,30.009,34.81,27.984,34.81"/>
<path fill="#00AB9E" d="M33.729,44.962c-6.15,0-11.298-3.409-14.76-7.544c-0.394,0.221-0.786,0.444-1.164,0.688
	c3.824,5.199,9.659,9.563,16.66,9.563c2.264,0,4.67-0.353,6.871-1.339c-0.016-1.043-0.145-1.988-0.359-2.853
	C38.714,44.59,36.134,44.962,33.729,44.962"/>
<path fill="#00AB9E" d="M34.464,49.154c-7.497,0-13.745-4.678-17.833-10.242c-0.301,0.223-0.58,0.459-0.863,0.694
	c4.41,6.501,11.23,11.999,19.422,11.999c1.881,0,3.848-0.225,5.752-0.801c0.193-0.992,0.311-1.963,0.363-2.869
	C38.921,48.875,36.47,49.154,34.464,49.154"/>
</svg>
